<?xml version="1.0" encoding="UTF-8" standalone="no"?>
<!-- Created with Inkscape (http://www.inkscape.org/) -->
<svg xmlns:dc="http://purl.org/dc/elements/1.1/" xmlns:cc="http://creativecommons.org/ns#" xmlns:rdf="http://www.w3.org/1999/02/22-rdf-syntax-ns#" xmlns:svg="http://www.w3.org/2000/svg" xmlns="http://www.w3.org/2000/svg" xmlns:sodipodi="http://sodipodi.sourceforge.net/DTD/sodipodi-0.dtd" xmlns:inkscape="http://www.inkscape.org/namespaces/inkscape" width="380" height="227" viewBox="0 0 380 227" id="svg4349" version="1.1" inkscape:version="0.91 r13725" sodipodi:docname="logo-blur.svg">
  <defs id="defs4351">
    <filter inkscape:collect="always" style="color-interpolation-filters:sRGB" id="filter4291" x="-0.06583751" width="1.131675" y="-0.12069616" height="1.2413923">
      <feGaussianBlur inkscape:collect="always" stdDeviation="9.2338091" id="feGaussianBlur4293"/>
    </filter>
  </defs>
  <sodipodi:namedview id="base" pagecolor="#ffffff" bordercolor="#666666" borderopacity="1.0" inkscape:pageopacity="0.0" inkscape:pageshadow="2" inkscape:zoom="0.35" inkscape:cx="-112.14286" inkscape:cy="177.14286" inkscape:document-units="px" inkscape:current-layer="layer1" showgrid="false" units="px" inkscape:window-width="1366" inkscape:window-height="705" inkscape:window-x="-8" inkscape:window-y="-8" inkscape:window-maximized="1"/>
  <metadata id="metadata4354">
    <rdf:RDF>
      <cc:Work rdf:about="">
        <dc:format>image/svg+xml</dc:format>
        <dc:type rdf:resource="http://purl.org/dc/dcmitype/StillImage"/>
        <dc:title/>
      </cc:Work>
    </rdf:RDF>
  </metadata>
  <g inkscape:label="Layer 1" inkscape:groupmode="layer" id="layer1" transform="translate(0,-825.36216)">
    <g id="g4949" transform="translate(-3.8227711,823.17618)">
      <g transform="translate(25.994614,23.53285)" id="g4161" style="fill:#646464;fill-opacity:1;filter:url(#filter4291)">
        <path style="fill:#646464;fill-opacity:1" class="code" d="m 80.23,25.89 c -8.7302,0 -16.605,3.7684 -22.191,9.5385 l -0.02848,0.02848 c -5.47,5.8345 -9.1213,13.882 -9.1213,22.914 0,8.8737 3.6513,16.885 9.1213,22.72 l 0,0.02848 c 5.5961,5.8713 13.504,9.5383 22.219,9.5383 14.868,0 26.743,-10.009 30.367,-24.416 l 0.66776,-2.6696 -12.736,0 -0.49976,1.446 c -2.807,8.2653 -9.5614,12.82 -17.798,12.82 -5.1073,0 -9.7385,-2.2152 -13.126,-5.7564 -3.4092,-3.5639 -5.5617,-8.2992 -5.5617,-13.71 0,-5.5971 2.1525,-10.34 5.5617,-13.904 3.3872,-3.5411 8.0184,-5.7564 13.126,-5.7564 8.0666,0 14.406,3.8649 17.297,12.069 l 0.50118,1.4181 12.82,0 -0.69481,-2.6419 c -3.63,-14.323 -15.37,-23.664 -29.929,-23.664 z" id="path4163" inkscape:connector-curvature="0"/>
        <path style="fill:#646464;fill-opacity:1" class="code" d="m 146.44,25.39 c -8.9677,0 -17.199,3.7314 -23.053,9.6773 l 0,0.02848 c -5.7378,5.9199 -9.4828,14.062 -9.4828,23.109 0,9.0471 3.745,17.161 9.4828,23.081 5.8638,6.047 14.1,9.7052 23.053,9.7052 9.0326,0 17.203,-3.6521 23.137,-9.6775 l 0,-0.02848 c 5.7378,-5.9199 9.5106,-14.034 9.5104,-23.081 0,-9.0469 -3.7726,-17.189 -9.5104,-23.109 l 0,-0.02848 c -5.9246,-5.9244 -14.09,-9.6773 -23.137,-9.6773 z m 0,12.987 c 5.2961,0 10.33,2.2381 13.96,5.8676 3.469,3.5582 5.7009,8.396 5.7009,13.96 0,5.5681 -2.2556,10.373 -5.7287,13.932 -3.6281,3.6187 -8.6449,5.8676 -13.932,5.8676 -5.2961,0 -10.221,-2.2186 -13.765,-5.8399 l -0.0285,-0.02848 c -3.5467,-3.5467 -5.7564,-8.4481 -5.7564,-13.932 0,-5.4836 2.2098,-10.413 5.7564,-13.96 l 0.0285,0 0,-0.02848 c 3.5443,-3.6213 8.4692,-5.8397 13.765,-5.8397 z" id="path4165" inkscape:connector-curvature="0"/>
        <path style="fill:#646464;fill-opacity:1" class="code" d="m 184.96,26.252 0,2.1135 0,61.874 23.582,0 c 10.322,0 18.348,-4.0117 23.637,-10.039 5.2896,-6.0271 7.8699,-13.971 7.8699,-21.913 0,-7.9427 -2.5819,-15.921 -7.8699,-21.969 -5.2879,-6.0483 -13.312,-10.067 -23.637,-10.067 l -23.582,0 z m 12.903,12.875 10.679,0 c 6.3704,0 10.891,2.3977 13.988,5.9511 3.0974,3.5534 4.7275,8.3834 4.7275,13.209 0,4.8258 -1.6324,9.6218 -4.7275,13.154 -3.0951,3.5317 -7.6131,5.8954 -13.988,5.8955 l -10.679,0 0,-38.209 z" id="path4167" inkscape:connector-curvature="0"/>
        <path style="fill:#646464;fill-opacity:1" class="code" d="m 244.77,26.252 0,63.988 40.768,0 0,-12.903 -27.781,0 0,-12.653 27.086,0 0,-12.987 -27.086,0 0,-12.569 27.697,0 0,-12.875 -40.684,0 z" id="path4169" inkscape:connector-curvature="0"/>
        <path style="fill:#646464;fill-opacity:1" d="m 54.926,97.192 a 2.1359,2.1359 0 0 0 -1.9189,2.1413 l 0,59.789 a 2.1359,2.1359 0 0 0 2.1413,2.1413 l 1.2786,0 a 2.1359,2.1359 0 0 0 2.1413,-2.1413 l 0,-50.806 20.439,30.395 a 2.1359,2.1359 0 0 0 1.7798,0.94541 l 1.112,0 a 2.1359,2.1359 0 0 0 1.7518,-0.94541 l 20.439,-30.395 0,50.806 a 2.1359,2.1359 0 0 0 2.1413,2.1413 l 1.2786,0 a 2.1359,2.1359 0 0 0 2.1412,-2.1413 l 0,-59.789 a 2.1359,2.1359 0 0 0 -2.1412,-2.1413 l -1.3626,0 a 2.1359,2.1359 0 0 0 -1.7518,0.94541 l -23.113,34.035 -22.998,-34.033 a 2.1359,2.1359 0 0 0 -1.78,-0.945 l -1.3626,0 a 2.1359,2.1359 0 0 0 -0.22211,0 z" id="path4171" inkscape:connector-curvature="0"/>
        <path style="fill:#646464;fill-opacity:1" d="m 145.72,96.33 a 2.1359,2.1359 0 0 0 -2.0023,1.3626 l -23.999,60.651 a 2.1359,2.1359 0 0 0 1.9744,2.9199 l 1.4738,0 a 2.1359,2.1359 0 0 0 1.9745,-1.3341 l 7.564,-18.743 27.364,0 7.6752,18.743 a 2.1359,2.1359 0 0 0 1.9745,1.3341 l 1.446,0 a 2.1359,2.1359 0 0 0 1.9744,-2.9199 l -23.98,-60.648 a 2.1359,2.1359 0 0 0 -1.9744,-1.3626 l -1.446,0 z m 0.69481,9.8164 11.457,29.477 -22.887,0 11.429,-29.477 z" id="path4173" inkscape:connector-curvature="0"/>
        <path style="fill:#646464;fill-opacity:1" d="m 185.13,97.275 a 2.1359,2.1359 0 0 0 -1.9189,2.1413 l 0,59.705 a 2.1359,2.1359 0 0 0 2.1413,2.1413 l 20.161,0 c 10.345,0 18.376,-4.0261 23.665,-10.067 5.2887,-6.0408 7.8698,-14.009 7.8698,-21.941 0,-7.9317 -2.5811,-15.873 -7.8698,-21.913 -5.2889,-6.0406 -13.32,-10.067 -23.665,-10.067 l -20.161,0 a 2.1359,2.1359 0 0 0 -0.22211,0 z m 3.615,5.5617 16.769,0 c 8.8333,0 15.165,3.2881 19.466,8.2035 4.3007,4.9154 6.5074,11.538 6.5074,18.215 0,6.6768 -2.2066,13.327 -6.5074,18.242 -4.3006,4.9154 -10.633,8.2035 -19.466,8.2035 l -16.769,0 0,-52.864 z" id="path4175" inkscape:connector-curvature="0"/>
        <path style="fill:#646464;fill-opacity:1" d="m 250.59,97.275 a 2.1359,2.1359 0 0 0 -1.9187,2.1413 l 0,59.705 a 2.1359,2.1359 0 0 0 2.1413,2.1413 l 0.16658,0 32.981,0 a 2.1359,2.1359 0 0 0 2.1414,-2.1413 l 0,-1.2786 a 2.1359,2.1359 0 0 0 -2.1414,-2.1413 l -29.644,0 0,-23.665 28.782,0 a 2.1359,2.1359 0 0 0 2.1412,-2.1413 l 0,-1.3626 a 2.1359,2.1359 0 0 0 -2.1412,-2.1135 l -28.782,0 0,-23.582 29.477,0 a 2.1359,2.1359 0 0 0 2.1413,-2.1413 l 0,-1.2786 a 2.1359,2.1359 0 0 0 -2.1413,-2.1413 l -32.981,0 a 2.1359,2.1359 0 0 0 -0.22211,0 z" id="path4177" inkscape:connector-curvature="0"/>
        <path style="fill:#646464;fill-opacity:1" d="m 19.501,91.626 q 6.0597,4.6054 8.2413,8.7261 2.7875,5.4539 2.7875,12.968 l 0,43.509 q 0,6.9082 3.9995,11.271 3.9995,4.4843 9.938,5.0902 3.7571,0.36307 4.9691,1.4544 1.5754,1.4543 1.5754,3.6358 0,2.3027 -1.5754,3.6358 -1.5756,1.4544 -4.6054,1.4544 -9.5745,0 -15.998,-6.0598 -8.6049,-8.3624 -8.6049,-20.361 l 0,-43.63 q 0,-6.6658 -3.9995,-11.15 -3.9995,-4.6054 -10.18,-5.0901 -3.3935,-0.36307 -4.7266,-1.6967 -1.3327,-1.3327 -1.3327,-3.7571 0,-2.3027 1.3327,-3.6358 1.3327,-1.3327 4.7266,-1.6967 6.3022,-0.48409 10.18,-4.9691 3.9995,-4.6054 3.9995,-11.271 l 0,-43.63 q 0,-11.392 7.2717,-18.907 7.2718,-7.6354 17.452,-7.6354 2.9087,0 4.4843,1.4544 1.5754,1.4543 1.5754,3.6358 0,2.1816 -1.5754,3.636 -1.0906,1.2117 -4.9691,1.5754 -6.0599,0.60654 -10.059,5.0902 -3.8782,4.4843 -3.8782,11.15 l 0,43.63 q 0,7.6354 -2.4239,12.362 -2.424,4.6054 -8.6049,9.2109 z" id="path4179" inkscape:connector-curvature="0"/>
        <path style="fill:#646464;fill-opacity:1" d="m 317.08,91.626 q -6.1809,-4.6054 -8.2413,-8.7261 -2.7875,-5.3326 -2.7875,-12.847 l 0,-43.63 q 0,-6.787 -3.9995,-11.271 -3.9995,-4.4843 -9.938,-4.9691 -3.8783,-0.36307 -4.9691,-1.4543 -1.5756,-1.5756 -1.5756,-3.7571 0,-2.1816 1.4544,-3.6358 1.5756,-1.4544 4.6054,-1.4544 9.6957,0 15.998,6.181 8.6049,8.2413 8.6049,20.361 l 0,43.63 q 0,6.6658 3.9995,11.271 4.1206,4.4843 10.302,4.9691 3.2722,0.36307 4.6054,1.6967 1.4543,1.3327 1.4543,3.6358 0,2.4239 -1.4543,3.7571 -1.3327,1.3327 -4.6054,1.6967 -6.3022,0.48409 -10.302,5.0901 -3.9995,4.4843 -3.9995,11.15 l 0,43.63 q 0,11.392 -7.2718,18.907 -7.2718,7.6353 -17.331,7.6353 -3.0298,0 -4.6054,-1.4544 -1.4544,-1.4543 -1.4544,-3.757 0,-2.1816 1.4544,-3.6358 1.2116,-1.0906 5.0902,-1.4544 6.0597,-0.60654 9.938,-5.2114 3.9995,-4.4843 3.9995,-11.15 l 0,-43.509 q 0,-7.6354 2.4239,-12.362 2.424,-4.7266 8.6049,-9.332 z" id="path4181" inkscape:connector-curvature="0"/>
      </g>
      <g transform="translate(25.994614,23.53285)" id="g4295" style="fill:#ffffff">
        <path class="code" d="m 80.23,25.89 c -8.7302,0 -16.605,3.7684 -22.191,9.5385 l -0.02848,0.02848 c -5.47,5.8345 -9.1213,13.882 -9.1213,22.914 0,8.8737 3.6513,16.885 9.1213,22.72 l 0,0.02848 c 5.5961,5.8713 13.504,9.5383 22.219,9.5383 14.868,0 26.743,-10.009 30.367,-24.416 l 0.66776,-2.6696 -12.736,0 -0.49976,1.446 c -2.807,8.2653 -9.5614,12.82 -17.798,12.82 -5.1073,0 -9.7385,-2.2152 -13.126,-5.7564 -3.4092,-3.5639 -5.5617,-8.2992 -5.5617,-13.71 0,-5.5971 2.1525,-10.34 5.5617,-13.904 3.3872,-3.5411 8.0184,-5.7564 13.126,-5.7564 8.0666,0 14.406,3.8649 17.297,12.069 l 0.50118,1.4181 12.82,0 -0.69481,-2.6419 c -3.63,-14.323 -15.37,-23.664 -29.929,-23.664 z" id="path4297" inkscape:connector-curvature="0"/>
        <path class="code" d="m 146.44,25.39 c -8.9677,0 -17.199,3.7314 -23.053,9.6773 l 0,0.02848 c -5.7378,5.9199 -9.4828,14.062 -9.4828,23.109 0,9.0471 3.745,17.161 9.4828,23.081 5.8638,6.047 14.1,9.7052 23.053,9.7052 9.0326,0 17.203,-3.6521 23.137,-9.6775 l 0,-0.02848 c 5.7378,-5.9199 9.5106,-14.034 9.5104,-23.081 0,-9.0469 -3.7726,-17.189 -9.5104,-23.109 l 0,-0.02848 c -5.9246,-5.9244 -14.09,-9.6773 -23.137,-9.6773 z m 0,12.987 c 5.2961,0 10.33,2.2381 13.96,5.8676 3.469,3.5582 5.7009,8.396 5.7009,13.96 0,5.5681 -2.2556,10.373 -5.7287,13.932 -3.6281,3.6187 -8.6449,5.8676 -13.932,5.8676 -5.2961,0 -10.221,-2.2186 -13.765,-5.8399 l -0.0285,-0.02848 c -3.5467,-3.5467 -5.7564,-8.4481 -5.7564,-13.932 0,-5.4836 2.2098,-10.413 5.7564,-13.96 l 0.0285,0 0,-0.02848 c 3.5443,-3.6213 8.4692,-5.8397 13.765,-5.8397 z" id="path4299" inkscape:connector-curvature="0"/>
        <path class="code" d="m 184.96,26.252 0,2.1135 0,61.874 23.582,0 c 10.322,0 18.348,-4.0117 23.637,-10.039 5.2896,-6.0271 7.8699,-13.971 7.8699,-21.913 0,-7.9427 -2.5819,-15.921 -7.8699,-21.969 -5.2879,-6.0483 -13.312,-10.067 -23.637,-10.067 l -23.582,0 z m 12.903,12.875 10.679,0 c 6.3704,0 10.891,2.3977 13.988,5.9511 3.0974,3.5534 4.7275,8.3834 4.7275,13.209 0,4.8258 -1.6324,9.6218 -4.7275,13.154 -3.0951,3.5317 -7.6131,5.8954 -13.988,5.8955 l -10.679,0 0,-38.209 z" id="path4301" inkscape:connector-curvature="0"/>
        <path class="code" d="m 244.77,26.252 0,63.988 40.768,0 0,-12.903 -27.781,0 0,-12.653 27.086,0 0,-12.987 -27.086,0 0,-12.569 27.697,0 0,-12.875 -40.684,0 z" id="path4303" inkscape:connector-curvature="0"/>
        <path d="m 54.926,97.192 a 2.1359,2.1359 0 0 0 -1.9189,2.1413 l 0,59.789 a 2.1359,2.1359 0 0 0 2.1413,2.1413 l 1.2786,0 a 2.1359,2.1359 0 0 0 2.1413,-2.1413 l 0,-50.806 20.439,30.395 a 2.1359,2.1359 0 0 0 1.7798,0.94541 l 1.112,0 a 2.1359,2.1359 0 0 0 1.7518,-0.94541 l 20.439,-30.395 0,50.806 a 2.1359,2.1359 0 0 0 2.1413,2.1413 l 1.2786,0 a 2.1359,2.1359 0 0 0 2.1412,-2.1413 l 0,-59.789 a 2.1359,2.1359 0 0 0 -2.1412,-2.1413 l -1.3626,0 a 2.1359,2.1359 0 0 0 -1.7518,0.94541 l -23.113,34.035 -22.998,-34.033 a 2.1359,2.1359 0 0 0 -1.78,-0.945 l -1.3626,0 a 2.1359,2.1359 0 0 0 -0.22211,0 z" id="path4305" inkscape:connector-curvature="0"/>
        <path d="m 145.72,96.33 a 2.1359,2.1359 0 0 0 -2.0023,1.3626 l -23.999,60.651 a 2.1359,2.1359 0 0 0 1.9744,2.9199 l 1.4738,0 a 2.1359,2.1359 0 0 0 1.9745,-1.3341 l 7.564,-18.743 27.364,0 7.6752,18.743 a 2.1359,2.1359 0 0 0 1.9745,1.3341 l 1.446,0 a 2.1359,2.1359 0 0 0 1.9744,-2.9199 l -23.98,-60.648 a 2.1359,2.1359 0 0 0 -1.9744,-1.3626 l -1.446,0 z m 0.69481,9.8164 11.457,29.477 -22.887,0 11.429,-29.477 z" id="path4307" inkscape:connector-curvature="0"/>
        <path d="m 185.13,97.275 a 2.1359,2.1359 0 0 0 -1.9189,2.1413 l 0,59.705 a 2.1359,2.1359 0 0 0 2.1413,2.1413 l 20.161,0 c 10.345,0 18.376,-4.0261 23.665,-10.067 5.2887,-6.0408 7.8698,-14.009 7.8698,-21.941 0,-7.9317 -2.5811,-15.873 -7.8698,-21.913 -5.2889,-6.0406 -13.32,-10.067 -23.665,-10.067 l -20.161,0 a 2.1359,2.1359 0 0 0 -0.22211,0 z m 3.615,5.5617 16.769,0 c 8.8333,0 15.165,3.2881 19.466,8.2035 4.3007,4.9154 6.5074,11.538 6.5074,18.215 0,6.6768 -2.2066,13.327 -6.5074,18.242 -4.3006,4.9154 -10.633,8.2035 -19.466,8.2035 l -16.769,0 0,-52.864 z" id="path4309" inkscape:connector-curvature="0"/>
        <path d="m 250.59,97.275 a 2.1359,2.1359 0 0 0 -1.9187,2.1413 l 0,59.705 a 2.1359,2.1359 0 0 0 2.1413,2.1413 l 0.16658,0 32.981,0 a 2.1359,2.1359 0 0 0 2.1414,-2.1413 l 0,-1.2786 a 2.1359,2.1359 0 0 0 -2.1414,-2.1413 l -29.644,0 0,-23.665 28.782,0 a 2.1359,2.1359 0 0 0 2.1412,-2.1413 l 0,-1.3626 a 2.1359,2.1359 0 0 0 -2.1412,-2.1135 l -28.782,0 0,-23.582 29.477,0 a 2.1359,2.1359 0 0 0 2.1413,-2.1413 l 0,-1.2786 a 2.1359,2.1359 0 0 0 -2.1413,-2.1413 l -32.981,0 a 2.1359,2.1359 0 0 0 -0.22211,0 z" id="path4311" inkscape:connector-curvature="0"/>
        <path d="m 19.501,91.626 q 6.0597,4.6054 8.2413,8.7261 2.7875,5.4539 2.7875,12.968 l 0,43.509 q 0,6.9082 3.9995,11.271 3.9995,4.4843 9.938,5.0902 3.7571,0.36307 4.9691,1.4544 1.5754,1.4543 1.5754,3.6358 0,2.3027 -1.5754,3.6358 -1.5756,1.4544 -4.6054,1.4544 -9.5745,0 -15.998,-6.0598 -8.6049,-8.3624 -8.6049,-20.361 l 0,-43.63 q 0,-6.6658 -3.9995,-11.15 -3.9995,-4.6054 -10.18,-5.0901 -3.3935,-0.36307 -4.7266,-1.6967 -1.3327,-1.3327 -1.3327,-3.7571 0,-2.3027 1.3327,-3.6358 1.3327,-1.3327 4.7266,-1.6967 6.3022,-0.48409 10.18,-4.9691 3.9995,-4.6054 3.9995,-11.271 l 0,-43.63 q 0,-11.392 7.2717,-18.907 7.2718,-7.6354 17.452,-7.6354 2.9087,0 4.4843,1.4544 1.5754,1.4543 1.5754,3.6358 0,2.1816 -1.5754,3.636 -1.0906,1.2117 -4.9691,1.5754 -6.0599,0.60654 -10.059,5.0902 -3.8782,4.4843 -3.8782,11.15 l 0,43.63 q 0,7.6354 -2.4239,12.362 -2.424,4.6054 -8.6049,9.2109 z" id="path4313" inkscape:connector-curvature="0"/>
        <path d="m 317.08,91.626 q -6.1809,-4.6054 -8.2413,-8.7261 -2.7875,-5.3326 -2.7875,-12.847 l 0,-43.63 q 0,-6.787 -3.9995,-11.271 -3.9995,-4.4843 -9.938,-4.9691 -3.8783,-0.36307 -4.9691,-1.4543 -1.5756,-1.5756 -1.5756,-3.7571 0,-2.1816 1.4544,-3.6358 1.5756,-1.4544 4.6054,-1.4544 9.6957,0 15.998,6.181 8.6049,8.2413 8.6049,20.361 l 0,43.63 q 0,6.6658 3.9995,11.271 4.1206,4.4843 10.302,4.9691 3.2722,0.36307 4.6054,1.6967 1.4543,1.3327 1.4543,3.6358 0,2.4239 -1.4543,3.7571 -1.3327,1.3327 -4.6054,1.6967 -6.3022,0.48409 -10.302,5.0901 -3.9995,4.4843 -3.9995,11.15 l 0,43.63 q 0,11.392 -7.2718,18.907 -7.2718,7.6353 -17.331,7.6353 -3.0298,0 -4.6054,-1.4544 -1.4544,-1.4543 -1.4544,-3.757 0,-2.1816 1.4544,-3.6358 1.2116,-1.0906 5.0902,-1.4544 6.0597,-0.60654 9.938,-5.2114 3.9995,-4.4843 3.9995,-11.15 l 0,-43.509 q 0,-7.6354 2.4239,-12.362 2.424,-4.7266 8.6049,-9.332 z" id="path4315" inkscape:connector-curvature="0"/>
      </g>
    </g>
  </g>
</svg>